<svg xmlns="http://www.w3.org/2000/svg" width="186" height="186" viewBox="0 0 186 186"><g><g><path fill="#d94748" d="M92.827.345c51.268 0 92.828 41.56 92.828 92.827 0 51.268-41.56 92.828-92.828 92.828C41.56 186 0 144.44 0 93.172 0 41.905 41.56.345 92.827.345z"/></g><g><path fill="#fff" d="M57.154 51.973h72.655a11.157 11.157 0 0 1 11.174 11.187v41.915c0 6.196-4.98 11.177-11.174 11.177h-25.146v8.376h11.174a2.8 2.8 0 0 1 2.797 2.797v5.593H68.328v-5.593a2.8 2.8 0 0 1 2.797-2.797H82.3v-8.376H57.154a11.147 11.147 0 0 1-11.174-11.177V63.16c0-6.193 4.98-11.187 11.174-11.187zM59.95 63.16a2.79 2.79 0 0 0-2.797 2.785v36.336a2.8 2.8 0 0 0 2.797 2.793h67.06a2.79 2.79 0 0 0 2.798-2.793V65.945a2.782 2.782 0 0 0-2.798-2.785z"/></g></g></svg>